<svg width="64" height="64" viewBox="0 0 64 64" fill="none" xmlns="http://www.w3.org/2000/svg">
<path d="M32 35.4283C41.9375 35.4283 43.0769 33.089 43.0769 24.5711C43.0769 16.0533 41.9375 9.14258 32 9.14258C22.0625 9.14258 20.9231 16.0533 20.9231 24.5711C20.9231 33.089 22.0625 35.4283 32 35.4283ZM48 43.4283H41.1125C38.3375 44.5211 35.25 45.1426 32 45.1426C28.75 45.1426 25.675 44.5211 22.8875 43.4283H16C7.1625 43.4283 0 49.5676 0 57.1426V58.8569C0 61.6961 2.6875 63.9997 6 63.9997H32H58C61.3125 63.9997 64 61.6961 64 58.8569V57.1426C64 49.5676 56.8375 43.4283 48 43.4283Z" fill="black"/>
<path d="M19.6924 17.1429C19.6924 15.6835 19.6924 14.5357 19.077 14.5357C15.508 14.5357 13.6155 16.9019 13.6155 19.8214V23.7857C13.6155 26.7052 16.508 29.0714 20.077 29.0714L19.077 29.0085C19.077 29.0085 19.6924 28.8879 19.6924 27.4286V17.1429ZM44.3078 28.9049C47.8768 28.9049 49.154 26.7052 49.154 23.7857V19.8214C49.154 16.9019 47.8768 14.5357 44.3078 14.5357C44.3078 14.5357 44.3078 15.6835 44.3078 17.1429V26.2857C44.3078 27.7451 44.3078 28.9049 44.3078 28.9049ZM31.3847 0C16.9654 0 6.00098 9.81408 5.53857 21.1429V22.4643C5.53857 23.1944 6.26146 23.7857 7.15396 23.7857H8.76934C9.66184 23.7857 10.3847 23.1944 10.3847 22.4643V21.1429C10.3847 11.6707 19.8054 3.96429 31.3847 3.96429C42.964 3.96429 52.3847 11.6707 52.3847 21.1429H52.3726C52.3807 21.3435 52.3847 34.8296 52.3847 34.8296C52.3847 36.758 50.4735 38.3214 48.1161 38.3214H37.8463C37.8463 36.132 35.9074 36.5714 33.2309 36.5714H29.5386C26.8621 36.5714 24.9232 36.132 24.9232 38.3214C24.9232 40.5109 27.0929 42.2857 29.7693 42.2857H48.1161C53.15 42.2857 57.2309 38.9475 57.2309 34.8296V21.1429C56.7685 9.81408 45.8041 0 31.3847 0Z" fill="black"/>
</svg>
