<svg width="17" height="16" viewBox="0 0 17 16" fill="none" xmlns="http://www.w3.org/2000/svg">
<path d="M7.5619 1.98425C7.88369 1.11274 9.11631 1.11274 9.4381 1.98425L10.4754 4.79355C10.7654 5.57912 11.5142 6.10081 12.3516 6.10081H15.2575C16.2568 6.10081 16.6381 7.40501 15.7961 7.94333L13.789 9.22662C12.997 9.73299 12.6645 10.7226 12.9901 11.6044L13.8318 13.884C14.1639 14.7833 13.1627 15.5893 12.3551 15.0729L9.57734 13.297C8.9205 12.877 8.0795 12.877 7.42266 13.297L4.64495 15.0729C3.8373 15.5893 2.83614 14.7833 3.16818 13.884L4.00988 11.6044C4.33548 10.7226 4.00302 9.73299 3.21103 9.22662L1.20387 7.94333C0.361907 7.40502 0.743197 6.10081 1.74254 6.10081H4.64843C5.48584 6.10081 6.23458 5.57912 6.52463 4.79355L7.5619 1.98425Z" fill="#F26722" stroke="white"/>
</svg>
