<svg width="45" height="45" viewBox="0 0 45 45" fill="none" xmlns="http://www.w3.org/2000/svg">
<path d="M45 21.0938C45 19.0169 43.9883 17.223 42.5 16.2492V2.81338C42.5 2.04434 41.9547 0 40 0C39.4437 0 38.8914 0.20918 38.4391 0.616992L31.7961 6.59619C28.4594 9.59678 24.2703 11.25 20 11.25H5C2.23828 11.25 0 13.7681 0 16.875V25.3125C0 28.4194 2.23828 30.9375 5 30.9375H7.63281C7.52422 31.8586 7.4625 32.7955 7.4625 33.75C7.4625 37.2454 8.18594 40.5483 9.45938 43.5006C9.86484 44.4401 10.75 45 11.6781 45H17.4812C19.5164 45 20.7383 42.3773 19.5047 40.5563C18.2234 38.6648 17.4617 36.3059 17.4617 33.75C17.4617 32.7735 17.5883 31.8349 17.8062 30.9375H20C24.2703 30.9375 28.4594 32.5907 31.7953 35.5913L38.4383 41.5705C38.8813 41.9694 39.4318 42.1869 39.9992 42.1875C41.9461 42.1875 42.4992 40.1854 42.4992 39.375V25.9392C43.9883 24.9645 45 23.1706 45 21.0938ZM37.5 33.5232L34.918 31.1994C30.6992 27.4025 25.4 25.3125 20 25.3125V16.875C25.4 16.875 30.6992 14.785 34.918 10.9881L37.5 8.66426V33.5232Z" fill="#666666"/>
</svg>
